<svg width="195" height="57" viewBox="0 0 195 57" fill="none" xmlns="http://www.w3.org/2000/svg">
<path d="M194.23 39.7152C194.23 41.875 193.587 43.4719 192.3 44.5059C191.014 45.5168 189.026 46.0223 186.338 46.0223C183.65 46.0223 181.662 45.3905 180.375 44.1267C179.089 42.863 178.445 40.8526 178.445 38.0954V33.477C178.445 30.9036 179.089 28.9391 180.375 27.5835C181.662 26.2279 183.65 25.55 186.338 25.55C189.026 25.55 191.014 26.1819 192.3 27.4456C193.587 28.7094 194.23 30.7198 194.23 33.477V37.5094H183.202V38.0264C183.202 38.8536 183.27 39.5199 183.408 40.0254C183.569 40.5309 183.787 40.9215 184.063 41.1972C184.362 41.4729 184.706 41.6682 185.097 41.7831C185.488 41.875 185.924 41.921 186.407 41.921C187.533 41.921 188.337 41.7372 188.819 41.3695C189.325 40.9789 189.578 40.4275 189.578 39.7152H194.23ZM186.476 29.6514C185.786 29.6514 185.223 29.7433 184.787 29.9271C184.35 30.1109 184.017 30.3752 183.787 30.7198C183.558 31.0645 183.397 31.478 183.305 31.9606C183.236 32.4431 183.202 32.9945 183.202 33.6149H189.646C189.646 32.9715 189.601 32.4086 189.509 31.9261C189.44 31.4206 189.29 31.007 189.061 30.6854C188.831 30.3407 188.509 30.088 188.096 29.9271C187.682 29.7433 187.142 29.6514 186.476 29.6514Z" fill="white"/>
<path d="M176.131 30.5134C175.373 30.4215 174.661 30.4215 173.995 30.5134C173.328 30.6053 172.742 30.8121 172.237 31.1338C171.754 31.4554 171.364 31.8805 171.065 32.409C170.789 32.9374 170.651 33.5808 170.651 34.339V45.9882H165.93V25.6193H170.272L170.479 27.7562C170.686 27.4115 170.973 27.0784 171.341 26.7567C171.731 26.435 172.168 26.1708 172.65 25.964C173.156 25.7342 173.707 25.5849 174.305 25.516C174.902 25.424 175.511 25.424 176.131 25.516V30.5134Z" fill="white"/>
<path d="M154.225 46.2981C151.536 46.2981 149.549 45.6662 148.262 44.4025C146.975 43.1388 146.332 41.1283 146.332 38.3711V33.477C146.332 30.7887 146.975 28.8013 148.262 27.5146C149.549 26.2049 151.536 25.55 154.225 25.55C156.913 25.55 158.9 26.1819 160.187 27.4456C161.474 28.7094 162.117 30.7198 162.117 33.477V38.3711C162.117 41.1283 161.474 43.1388 160.187 44.4025C158.9 45.6662 156.913 46.2981 154.225 46.2981ZM154.225 42.0933C155.465 42.0933 156.292 41.7487 156.706 41.0594C157.143 40.3701 157.361 39.3935 157.361 38.1298V33.7183C157.361 32.4546 157.143 31.478 156.706 30.7887C156.292 30.0994 155.465 29.7548 154.225 29.7548C152.984 29.7548 152.145 30.0994 151.709 30.7887C151.295 31.478 151.088 32.4546 151.088 33.7183V38.1298C151.088 39.3935 151.295 40.3701 151.709 41.0594C152.145 41.7487 152.984 42.0933 154.225 42.0933Z" fill="white"/>
<path d="M135.269 22.1039L139.99 21.5869V25.5504H143.437V29.8585H139.99V38.4404C139.99 38.9918 140.025 39.4973 140.094 39.9568C140.163 40.4164 140.312 40.807 140.542 41.1286C140.794 41.4273 141.151 41.6456 141.61 41.7835C142.07 41.8984 142.702 41.9098 143.506 41.8179V45.9538C142.012 46.1146 140.737 46.1031 139.68 45.9193C138.646 45.7355 137.796 45.3449 137.13 44.7475C136.486 44.1501 136.015 43.3459 135.717 42.3349C135.418 41.301 135.269 40.0258 135.269 38.5093V22.1039Z" fill="white"/>
<path d="M126.758 26.3432C126.689 25.2173 126.356 24.4591 125.758 24.0685C125.184 23.6549 124.311 23.4481 123.139 23.4481C121.829 23.4481 120.887 23.6894 120.313 24.1719C119.738 24.6544 119.451 25.5275 119.451 26.7912C119.451 27.6184 119.612 28.2503 119.934 28.6868C120.255 29.1234 120.703 29.445 121.278 29.6518C121.875 29.8586 122.576 30.008 123.38 30.0999C124.207 30.1918 125.126 30.3182 126.137 30.479C126.896 30.5939 127.631 30.7777 128.343 31.0304C129.078 31.2832 129.722 31.6738 130.273 32.2023C130.848 32.7077 131.296 33.3856 131.617 34.2357C131.962 35.0858 132.134 36.1772 132.134 37.5099C132.134 39.0493 131.962 40.3705 131.617 41.4734C131.273 42.5763 130.733 43.4838 129.997 44.1961C129.285 44.8854 128.355 45.4024 127.206 45.747C126.057 46.0687 124.69 46.2296 123.104 46.2296C121.45 46.2296 120.06 46.0457 118.934 45.6781C117.831 45.2875 116.935 44.759 116.246 44.0927C115.58 43.4264 115.097 42.6452 114.798 41.7491C114.523 40.83 114.385 39.8305 114.385 38.7506H119.175C119.221 39.7846 119.52 40.5658 120.072 41.0943C120.646 41.6227 121.691 41.887 123.208 41.887C124.655 41.887 125.712 41.5653 126.379 40.9219C127.045 40.2786 127.378 39.1987 127.378 37.6822C127.378 36.901 127.171 36.3036 126.758 35.89C126.344 35.4535 125.816 35.1203 125.172 34.8905C124.529 34.6608 123.817 34.5114 123.036 34.4425C122.277 34.3506 121.542 34.2587 120.83 34.1668C120.072 34.0749 119.325 33.9025 118.59 33.6498C117.854 33.3741 117.188 32.9605 116.591 32.409C116.016 31.8576 115.545 31.1338 115.177 30.2377C114.833 29.3416 114.66 28.2043 114.66 26.8257C114.66 24.3212 115.384 22.4371 116.832 21.1734C118.302 19.9097 120.405 19.2778 123.139 19.2778C124.334 19.2778 125.425 19.4042 126.413 19.657C127.401 19.8867 128.251 20.2773 128.964 20.8288C129.699 21.3802 130.285 22.104 130.721 23.0001C131.158 23.8962 131.434 25.0105 131.548 26.3432H126.758Z" fill="white"/>
<path d="M103.53 22.1039L108.252 21.5869V25.5504H111.699V29.8585H108.252V38.4404C108.252 38.9918 108.286 39.4973 108.355 39.9568C108.424 40.4164 108.574 40.807 108.803 41.1286C109.056 41.4273 109.412 41.6456 109.872 41.7835C110.331 41.8984 110.963 41.9098 111.767 41.8179V45.9538C110.274 46.1146 108.999 46.1031 107.942 45.9193C106.908 45.7355 106.058 45.3449 105.391 44.7475C104.748 44.1501 104.277 43.3459 103.978 42.3349C103.68 41.301 103.53 40.0258 103.53 38.5093V22.1039Z" fill="white"/>
<path d="M95.3446 31.9951C95.3446 31.2139 95.0804 30.6509 94.5519 30.3063C94.0235 29.9386 93.3801 29.7548 92.6219 29.7548C91.7028 29.7548 90.979 29.9386 90.4506 30.3063C89.9451 30.6509 89.6923 31.1794 89.6923 31.8917C89.6923 32.4431 89.8302 32.8567 90.1059 33.1324C90.3816 33.4081 90.7493 33.6149 91.2088 33.7528C91.6683 33.8677 92.1968 33.9481 92.7942 33.994C93.4146 34.017 94.0694 34.063 94.7587 34.1319C95.448 34.2008 96.1143 34.3617 96.7577 34.6144C97.401 34.8672 97.9755 35.2233 98.481 35.6828C99.0094 36.1194 99.423 36.6708 99.7217 37.3372C100.043 38.0035 100.204 38.7847 100.204 39.6808C100.204 40.7837 99.9974 41.7372 99.5838 42.5414C99.1703 43.3456 98.6073 44.0119 97.895 44.5404C97.2057 45.0459 96.3786 45.425 95.4136 45.6777C94.4715 45.9305 93.449 46.0568 92.3462 46.0568C89.9106 46.0568 88.015 45.4939 86.6594 44.368C85.3038 43.2192 84.626 41.6568 84.626 39.6808H89.4166C89.4626 40.3931 89.7038 40.9445 90.1404 41.3351C90.5999 41.7257 91.4041 41.921 92.553 41.921C93.518 41.921 94.2303 41.7027 94.6898 41.2662C95.1723 40.8296 95.4136 40.3586 95.4136 39.8531C95.4136 39.4166 95.2757 39.0834 95 38.8536C94.7472 38.6009 94.4026 38.4171 93.966 38.3022C93.5524 38.1643 93.0584 38.0609 92.484 37.992C91.9326 37.9231 91.3467 37.8541 90.7263 37.7852C89.991 37.6933 89.2673 37.5325 88.555 37.3027C87.8657 37.0729 87.2453 36.7513 86.6939 36.3377C86.1654 35.9011 85.7289 35.3497 85.3842 34.6833C85.0625 33.994 84.9017 33.1439 84.9017 32.1329C84.9017 30.9841 85.097 29.9961 85.4876 29.1689C85.8782 28.3418 86.4067 27.664 87.073 27.1355C87.7623 26.584 88.578 26.182 89.52 25.9292C90.4621 25.6535 91.4845 25.5156 92.5874 25.5156C93.8282 25.5156 94.9081 25.688 95.8271 26.0326C96.7692 26.3543 97.5389 26.8138 98.1363 27.4112C98.7567 27.9856 99.2162 28.6634 99.5149 29.4446C99.8136 30.2259 99.963 31.076 99.963 31.9951H95.3446Z" fill="white"/>
<path d="M76.803 37.8541C75.5852 37.7393 74.5627 37.7163 73.7356 37.7852C72.9084 37.8541 72.2421 37.992 71.7366 38.1988C71.2311 38.4056 70.8635 38.6698 70.6337 38.9915C70.4039 39.3132 70.2891 39.6808 70.2891 40.0944C70.2891 40.7607 70.5533 41.2317 71.0818 41.5074C71.6102 41.7602 72.2765 41.8866 73.0807 41.8866C73.77 41.8866 74.3445 41.7717 74.804 41.5419C75.2635 41.3121 75.6312 41.0134 75.9069 40.6458C76.1826 40.2552 76.3894 39.8187 76.5272 39.3361C76.6651 38.8536 76.757 38.3596 76.803 37.8541ZM66.429 32.6154C66.2681 30.088 66.8311 28.2728 68.1178 27.17C69.4045 26.0671 71.2656 25.5156 73.7011 25.5156C76.3664 25.5156 78.2965 26.182 79.4912 27.5146C80.709 28.8243 81.3179 30.8003 81.3179 33.4426V45.9534H77.4578L77.0098 43.6098C76.4353 44.414 75.6886 45.0574 74.7695 45.5399C73.8505 45.9994 72.8165 46.2292 71.6677 46.2292C70.8405 46.2292 70.0593 46.1143 69.324 45.8845C68.6118 45.6318 67.9914 45.2641 67.4629 44.7816C66.9574 44.2991 66.5553 43.7017 66.2566 42.9894C65.9579 42.2772 65.8086 41.4385 65.8086 40.4735C65.8086 39.2787 66.0499 38.2677 66.5324 37.4406C67.0379 36.5904 67.7501 35.9126 68.6692 35.4071C69.6112 34.9016 70.7601 34.557 72.1157 34.3732C73.4943 34.1893 75.0567 34.1549 76.803 34.2698C76.803 32.7533 76.5962 31.616 76.1826 30.8577C75.792 30.0995 74.9763 29.7204 73.7356 29.7204C72.7016 29.7204 71.9664 29.9272 71.5298 30.3407C71.1162 30.7543 70.9209 31.5126 70.9439 32.6154H66.429Z" fill="white"/>
<path d="M63.8768 23.7584H53.0547V30.3757H62.2225V34.6838H53.0547V45.9884H48.333V19.4158H63.8768V23.7584Z" fill="white"/>
<g clip-path="url(#clip0_260_2530)">
<path d="M38.7815 23.8308L36.1229 20.9342C35.6637 20.4362 35.7005 19.6595 36.201 19.2026C36.7015 18.7457 37.482 18.7823 37.9412 19.2803L40.5998 22.1769C41.059 22.6749 41.0222 23.4516 40.5217 23.9084C40.0212 24.3653 39.2407 24.3288 38.7815 23.8308Z" fill="white"/>
<path d="M41.8993 43.9196L38.9882 46.5649C38.4877 47.0217 37.7071 46.9852 37.2479 46.4872C36.7887 45.9892 36.8255 45.2125 37.326 44.7556L40.2371 42.1103C40.7376 41.6534 41.5182 41.69 41.9773 42.188C42.4365 42.686 42.3998 43.4627 41.8993 43.9196Z" fill="white"/>
<path d="M35.7693 33.9506H31.8297C31.1501 33.9506 30.5991 33.4023 30.5991 32.7261C30.5991 32.05 31.1501 31.5017 31.8297 31.5017H35.7693C36.4489 31.5017 36.9999 32.05 36.9999 32.7261C36.9999 33.4023 36.4489 33.9506 35.7693 33.9506Z" fill="white"/>
<path d="M48.9381 52.1343C41.2149 52.1343 34.511 47.7163 31.2418 41.2834C30.9066 40.6255 30.6081 39.9448 30.3464 39.2458C29.552 37.1167 29.1204 34.8186 29.1204 32.4154C29.1204 28.7558 30.126 25.3247 31.88 22.387C32.2749 21.7245 32.7065 21.0895 33.1703 20.4818C36.7977 15.7531 42.5143 12.6966 48.9381 12.6966C54.1496 12.6966 58.8974 14.716 62.4422 18.001H68.9302C65.3992 13.1626 60.1418 9.64925 54.0624 8.36999V4.60989H54.9394C56.2205 4.60989 57.2582 3.57735 57.2582 2.30723C57.2582 1.03711 56.2205 0 54.9394 0H43.9194C42.6383 0 41.6006 1.03254 41.6006 2.30723C41.6006 3.58192 42.6383 4.60989 43.9194 4.60989H44.7964V8.18724C41.2792 8.78118 38.0191 10.1198 35.1722 12.0296L10.694 13.2677L32.0591 14.4967C30.1122 16.3151 28.45 18.435 27.1735 20.7925L14.8678 21.4138L26.5215 22.0854C25.617 24.018 24.9649 26.0831 24.5884 28.2441L0 29.0117L24.2808 30.894C24.2486 31.3966 24.2303 31.9037 24.2303 32.4154C24.2303 34.878 24.5976 37.2583 25.2772 39.5062L12.0026 40.1778L25.7731 40.9682C26.6822 43.4033 27.9771 45.6557 29.5704 47.6569L7.43852 48.5021L31.9627 50.2565C36.3936 54.4324 42.3674 57 48.9381 57C56.8725 57 63.9391 53.2536 68.4619 47.4513H61.7397C58.2821 50.3707 53.8144 52.1343 48.9381 52.1343Z" fill="white"/>
</g>
<defs>
<clipPath id="clip0_260_2530">
<rect width="68.9302" height="57" fill="white"/>
</clipPath>
</defs>
</svg>
